<?xml version="1.0" encoding="iso-8859-1"?>
<!-- Generator: Adobe Illustrator 21.0.2, SVG Export Plug-In . SVG Version: 6.00 Build 0)  -->
<svg version="1.1" xmlns="http://www.w3.org/2000/svg" xmlns:xlink="http://www.w3.org/1999/xlink" x="0px" y="0px"
	 viewBox="0 0 13.088 13.088" style="enable-background:new 0 0 13.088 13.088;" xml:space="preserve">
<g id="Australia_x5F_Post">
	<path d="M6.096,0.009c0.401-0.021,0.801-0.004,1.201,0.027C8.098,0.145,8.89,0.37,9.603,0.758c0.897,0.472,1.676,1.16,2.266,1.983
		c1.095,1.52,1.491,3.526,1.029,5.344c-0.196,0.852-0.584,1.655-1.103,2.357c-0.688,0.935-1.638,1.668-2.703,2.127
		c-0.268,0.094-0.528,0.216-0.808,0.276c-0.611,0.162-1.243,0.263-1.876,0.24c0.001-1.423,0.004-2.845-0.003-4.268
		c1.291-0.002,2.56-0.673,3.286-1.74c0.719-1.009,0.938-2.361,0.551-3.541C9.89,2.363,8.966,1.383,7.822,0.948
		c-0.36-0.155-0.751-0.217-1.137-0.266C6.487,0.678,6.289,0.684,6.091,0.681C6.097,0.457,6.086,0.233,6.096,0.009z"/>
	<path d="M3.892,0.556c0.256-0.096,0.504-0.217,0.771-0.28C4.662,4.454,4.659,8.633,4.666,12.81c-1.5-0.449-2.827-1.45-3.656-2.779
		C0.277,8.878-0.079,7.488,0.015,6.123C0.111,4.49,0.853,2.9,2.055,1.787C2.586,1.27,3.219,0.863,3.892,0.556z"/>
</g>
<g id="Layer_1">
</g>
</svg>
